<svg width="16" height="16" viewBox="0 0 16 16" fill="none" xmlns="http://www.w3.org/2000/svg">
<path fill-rule="evenodd" clip-rule="evenodd" d="M15.3354 3.3173V10.5522C15.3354 11.9785 14.1207 13.1361 12.624 13.1361H4.66333L1.86523 15.0379C1.14942 15.5289 0.151611 15.0379 0.151611 14.2007V3.3173C0.151611 1.89099 1.36631 0.733398 2.863 0.733398H12.624C14.1207 0.733398 15.3354 1.89099 15.3354 3.3173ZM14.2508 10.5522V3.3173C14.2508 2.45945 13.5242 1.76696 12.624 1.76696H2.863C1.96282 1.76696 1.23617 2.45945 1.23617 3.3173V14.2007L4.31633 12.1026H12.624C13.5242 12.1026 14.2508 11.4101 14.2508 10.5522Z" fill="white"/>
</svg>
