<svg width="23" height="6" viewBox="0 0 23 6" fill="none" xmlns="http://www.w3.org/2000/svg">
<path d="M2.875 0C1.28656 0 0 1.3425 0 3C0 4.6575 1.28656 6 2.875 6C4.46344 6 5.75 4.6575 5.75 3C5.75 1.3425 4.46344 0 2.875 0ZM20.125 0C18.5366 0 17.25 1.3425 17.25 3C17.25 4.6575 18.5366 6 20.125 6C21.7134 6 23 4.6575 23 3C23 1.3425 21.7134 0 20.125 0ZM11.5 0C9.91156 0 8.625 1.3425 8.625 3C8.625 4.6575 9.91156 6 11.5 6C13.0884 6 14.375 4.6575 14.375 3C14.375 1.3425 13.0884 0 11.5 0Z" fill="white"/>
</svg>
