<svg width="11" height="11" viewBox="0 0 11 11" fill="none" xmlns="http://www.w3.org/2000/svg">
<g clip-path="url(#clip0_160_1218)">
<path d="M5.49992 2.0625C3.20825 2.0625 1.25117 3.48792 0.458252 5.5C1.25117 7.51208 3.20825 8.9375 5.49992 8.9375C7.79158 8.9375 9.74867 7.51208 10.5416 5.5C9.74867 3.48792 7.79388 2.0625 5.49992 2.0625ZM5.49992 7.79167C4.23492 7.79167 3.20825 6.765 3.20825 5.5C3.20825 4.235 4.23492 3.20833 5.49992 3.20833C6.76492 3.20833 7.79158 4.235 7.79158 5.5C7.79158 6.765 6.76492 7.79167 5.49992 7.79167ZM5.49992 4.125C4.74138 4.125 4.12492 4.74146 4.12492 5.5C4.12492 6.25854 4.74138 6.875 5.49992 6.875C6.25846 6.875 6.87492 6.25854 6.87492 5.5C6.87492 4.74146 6.25846 4.125 5.49992 4.125Z" fill="white"/>
</g>
<defs>
<clipPath id="clip0_160_1218">
<rect width="11" height="11" fill="white"/>
</clipPath>
</defs>
</svg>
