<svg width="16" height="16" viewBox="0 0 16 16" fill="none" xmlns="http://www.w3.org/2000/svg">
<path fill-rule="evenodd" clip-rule="evenodd" d="M9.27853 1.76887C9.11338 1.76887 8.96068 1.85276 8.87784 1.98895L8.87404 1.99464L5.53743 7.16806V14.1974H11.9166C12.1343 14.1974 12.3227 14.0529 12.3698 13.8499L12.3715 13.8417L14.213 6.9635C14.2726 6.68851 14.0533 6.42958 13.7587 6.42958H10.9523C10.5207 6.42958 10.0929 6.29131 9.7859 6.00494C9.46589 5.70613 9.3159 5.2789 9.41228 4.81128L9.93155 2.29864C9.98841 2.02418 9.76856 1.76887 9.47616 1.76887H9.27853ZM4.45446 14.1974V7.53935H1.71564C1.4606 7.53935 1.25376 7.73615 1.25159 7.98006L1.20557 13.75C1.2034 13.9965 1.41187 14.1974 1.66962 14.1974H4.45446ZM4.69381 6.50364L7.94594 1.46126C8.22426 1.01021 8.73055 0.733154 9.27853 0.733154H9.47616C10.4508 0.733154 11.1829 1.58503 10.994 2.49957L10.4752 5.0117C10.4487 5.13858 10.486 5.2116 10.5423 5.2639C10.6122 5.32915 10.7503 5.39387 10.9523 5.39387H13.7587C14.7486 5.39387 15.4834 6.2706 15.2689 7.19445L15.2668 7.20273L13.4246 14.0835C13.2638 14.7557 12.6384 15.2332 11.9166 15.2332H1.66962C0.810825 15.2332 0.116106 14.5641 0.122604 13.7422L0.168625 7.97178C0.175123 7.15926 0.866052 6.50364 1.71564 6.50364H4.69381Z" fill="white"/>
</svg>
