<svg width="16" height="16" viewBox="0 0 16 16" fill="none" xmlns="http://www.w3.org/2000/svg">
<path fill-rule="evenodd" clip-rule="evenodd" d="M15.5917 2.72603C16.0659 1.54396 14.8331 0.391314 13.5635 0.827848L1.54102 4.96268C0.276611 5.39921 0.144948 7.01779 1.32506 7.6309L5.51339 9.80378C5.60822 9.85283 5.6872 9.92643 5.73462 10.0147L8.03695 14.4095C8.64808 15.567 10.4499 15.4885 10.9398 14.277L15.5917 2.72603ZM14.5697 2.46121L6.68295 9.59285L8.98529 13.9778C9.18548 14.3653 9.79126 14.3359 9.94931 13.9337L14.5697 2.46121ZM5.93488 8.89639L1.83608 6.77255C1.44095 6.57145 1.48831 6.03194 1.90978 5.8848L13.8005 1.78924L5.93488 8.89639Z" fill="white"/>
</svg>
