<svg width="16" height="16" viewBox="0 0 41 31" fill="none" xmlns="http://www.w3.org/2000/svg">
<path d="M36.6667 0.895833C34.6317 0.26875 32.395 0 30.25 0C26.675 0 22.825 0.716667 20.1667 2.6875C17.5083 0.716667 13.6583 0 10.0833 0C6.50833 0 2.65833 0.716667 0 2.6875V28.9354C0 29.3833 0.458333 29.8312 0.916667 29.8312C1.1 29.8312 1.19167 29.7417 1.375 29.7417C3.85 28.5771 7.425 27.7708 10.0833 27.7708C13.6583 27.7708 17.5083 28.4875 20.1667 30.4583C22.6417 28.9354 27.1333 27.7708 30.25 27.7708C33.275 27.7708 36.3917 28.3083 38.9583 29.6521C39.1417 29.7417 39.2333 29.7417 39.4167 29.7417C39.875 29.7417 40.3333 29.2938 40.3333 28.8458V2.6875C39.2333 1.88125 38.0417 1.34375 36.6667 0.895833ZM36.6667 25.0833C34.65 24.4562 32.45 24.1875 30.25 24.1875C27.1333 24.1875 22.6417 25.3521 20.1667 26.875V6.27083C22.6417 4.74792 27.1333 3.58333 30.25 3.58333C32.45 3.58333 34.65 3.85208 36.6667 4.47917V25.0833Z" fill="white" fill-opacity="0.87"/>
</svg>
