<svg width="19" height="19" viewBox="0 0 19 19" fill="none" xmlns="http://www.w3.org/2000/svg">
<path d="M16.8889 1.9H12.4767C12.0333 0.798 10.8722 0 9.5 0C8.12778 0 6.96667 0.798 6.52333 1.9H2.11111C0.95 1.9 0 2.755 0 3.8V17.1C0 18.145 0.95 19 2.11111 19H16.8889C18.05 19 19 18.145 19 17.1V3.8C19 2.755 18.05 1.9 16.8889 1.9ZM9.5 1.9C10.0806 1.9 10.5556 2.3275 10.5556 2.85C10.5556 3.3725 10.0806 3.8 9.5 3.8C8.91945 3.8 8.44444 3.3725 8.44444 2.85C8.44444 2.3275 8.91945 1.9 9.5 1.9ZM11.6111 15.2H4.22222V13.3H11.6111V15.2ZM14.7778 11.4H4.22222V9.5H14.7778V11.4ZM14.7778 7.6H4.22222V5.7H14.7778V7.6Z" fill="white" fill-opacity="0.87"/>
</svg>
