<svg width="20" height="20" viewBox="0 0 20 20" fill="none" xmlns="http://www.w3.org/2000/svg">
<path fill-rule="evenodd" clip-rule="evenodd" d="M3.57143 1.42857C2.38786 1.42857 1.42857 2.38786 1.42857 3.57143V11.8471L4.49502 8.78074C4.77359 8.50145 5.22641 8.50145 5.50498 8.78074L11.0714 14.3471L14.495 10.9236C14.7736 10.6443 15.2264 10.6443 15.505 10.9236L18.5714 13.99V3.57143C18.5714 2.38786 17.6121 1.42857 16.4286 1.42857H3.57143ZM20 3.57143C20 1.59929 18.4007 0 16.4286 0H3.57143C1.59929 0 0 1.59929 0 3.57143V16.4286C0 18.4007 1.59929 20 3.57143 20H16.4286C18.4007 20 20 18.4007 20 16.4286V3.57143ZM18.5714 16.01L15 12.4386L12.0814 15.3571L15.2957 18.5714H16.4286C17.6121 18.5714 18.5714 17.6121 18.5714 16.4286V16.01ZM13.2757 18.5714L5 10.2957L1.42857 13.8671V16.4286C1.42857 17.6121 2.38786 18.5714 3.57143 18.5714H13.2757ZM14.2857 4.28571C13.4964 4.28571 12.8571 4.925 12.8571 5.71429C12.8571 6.50357 13.4964 7.14286 14.2857 7.14286C15.075 7.14286 15.7143 6.50357 15.7143 5.71429C15.7143 4.925 15.075 4.28571 14.2857 4.28571ZM11.4286 5.71429C11.4286 4.13643 12.7079 2.85714 14.2857 2.85714C15.8636 2.85714 17.1429 4.13643 17.1429 5.71429C17.1429 7.29214 15.8636 8.57143 14.2857 8.57143C12.7079 8.57143 11.4286 7.29214 11.4286 5.71429Z" fill="white"/>
</svg>
