<svg width="15" height="15" viewBox="0 0 15 15" fill="none" xmlns="http://www.w3.org/2000/svg">
<path d="M7.49625 0C3.3525 0 0 3.35625 0 7.5C0 11.6438 3.3525 15 7.49625 15C11.64 15 15 11.6438 15 7.5C15 3.35625 11.64 0 7.49625 0ZM12.69 4.5H10.4775C10.2338 3.5625 9.8925 2.6625 9.4425 1.83C10.8225 2.3025 11.97 3.25875 12.69 4.5ZM7.5 1.52625C8.12625 2.42625 8.61375 3.4275 8.9325 4.5H6.0675C6.38625 3.4275 6.87375 2.42625 7.5 1.52625ZM1.695 9C1.57125 8.52 1.5 8.0175 1.5 7.5C1.5 6.9825 1.57125 6.48 1.695 6H4.22625C4.16625 6.49125 4.125 6.99 4.125 7.5C4.125 8.01 4.16625 8.50875 4.23 9H1.695ZM2.30625 10.5H4.51875C4.7625 11.4375 5.10375 12.3375 5.55375 13.1737C4.17375 12.7013 3.02625 11.7413 2.30625 10.5ZM4.51875 4.5H2.30625C3.02625 3.25875 4.17375 2.29875 5.55375 1.82625C5.10375 2.6625 4.7625 3.5625 4.51875 4.5ZM7.5 13.4738C6.8775 12.5738 6.39 11.5725 6.0675 10.5H8.9325C8.61 11.5725 8.1225 12.5738 7.5 13.4738ZM9.255 9H5.745C5.67375 8.50875 5.625 8.01 5.625 7.5C5.625 6.99 5.67375 6.49125 5.745 6H9.255C9.32625 6.49125 9.375 6.99 9.375 7.5C9.375 8.01 9.32625 8.50875 9.255 9ZM9.44625 13.17C9.89625 12.3337 10.2375 11.4375 10.4813 10.5H12.6937C11.97 11.7413 10.8225 12.6975 9.44625 13.17ZM10.77 9C10.83 8.50875 10.875 8.01 10.875 7.5C10.875 6.99 10.8338 6.49125 10.77 6H13.3013C13.425 6.48 13.5 6.9825 13.5 7.5C13.5 8.0175 13.4288 8.52 13.3013 9H10.77Z" fill="#757575"/>
</svg>
